<?xml version="1.0" encoding="UTF-8"?>
<svg xmlns="http://www.w3.org/2000/svg" width="601" height="167" viewBox="0 0 601 167" fill="none">
  <g clip-path="url(#clip0_511_1282)">
    <path d="M323.833 120.231V156.422C319.456 159.684 314.55 162.167 309.33 163.764C303.974 165.343 298.414 166.121 292.83 166.073C286.07 166.175 279.349 165.022 273.009 162.674C267.382 160.547 262.245 157.299 257.91 153.127C253.706 149.033 250.409 144.101 248.233 138.65C245.926 132.804 244.772 126.567 244.835 120.282C244.762 113.958 245.87 107.676 248.104 101.759C252.222 90.727 260.918 82.021 271.946 77.8908C278.123 75.58 284.679 74.445 291.273 74.5441C294.682 74.5252 298.086 74.8117 301.443 75.4002C304.438 75.9419 307.38 76.7404 310.238 77.787C312.825 78.7521 315.304 79.9869 317.632 81.471C319.837 82.9034 321.912 84.5268 323.833 86.3224L319.059 93.872C318.443 94.9775 317.387 95.7697 316.153 96.0512C314.79 96.2877 313.389 95.9701 312.262 95.1691L308.266 92.8083C306.819 91.9877 305.299 91.3017 303.726 90.7587C301.889 90.1458 300.007 89.6774 298.097 89.3578C295.715 88.9482 293.301 88.7572 290.884 88.787C286.789 88.7308 282.724 89.4892 278.924 91.0182C275.44 92.4334 272.319 94.6147 269.792 97.4003C267.191 100.287 265.213 103.678 263.981 107.363C262.562 111.538 261.869 115.925 261.931 120.334C261.853 124.995 262.599 129.632 264.137 134.032C265.455 137.835 267.559 141.318 270.311 144.254C272.996 147.02 276.255 149.164 279.858 150.532C286.725 153.014 294.171 153.411 301.262 151.674C303.885 150.967 306.439 150.02 308.889 148.846V132.735H297.604C296.649 132.815 295.706 132.485 295.009 131.827C294.413 131.25 294.084 130.451 294.101 129.622V120.231H323.833ZM350.995 112.629C352.692 109.183 355.097 106.133 358.052 103.679C360.791 101.503 364.206 100.356 367.703 100.436C370.2 100.303 372.674 100.976 374.759 102.355L373.774 113.797C373.646 114.401 373.339 114.953 372.892 115.379C372.429 115.703 371.873 115.867 371.309 115.846C370.386 115.815 369.466 115.711 368.559 115.535C367.376 115.33 366.179 115.226 364.979 115.223C363.443 115.196 361.915 115.442 360.465 115.95C359.157 116.442 357.952 117.173 356.91 118.103C355.819 119.08 354.883 120.217 354.134 121.476C353.264 122.918 352.509 124.428 351.877 125.99V165.087H336.804V101.603H345.755C346.916 101.49 348.081 101.783 349.05 102.433C349.794 103.266 350.233 104.327 350.295 105.443L350.995 112.629ZM428.852 115.223C427.875 112.334 426.302 109.682 424.234 107.44C422.169 105.19 419.636 103.419 416.814 102.252C413.646 100.993 410.26 100.375 406.852 100.436C397.09 100.22 387.628 103.812 380.467 110.45L383.476 115.327C383.937 116.096 384.545 116.767 385.267 117.299C386.058 117.869 387.016 118.161 387.991 118.129C389.174 118.146 390.34 117.841 391.363 117.247L394.736 115.301C396.097 114.516 397.53 113.865 399.017 113.355C401.013 112.731 403.1 112.442 405.191 112.499C408.11 112.325 410.957 113.445 412.974 115.561C415.004 118.271 415.972 121.629 415.698 125.004V128.74C411.355 128.799 407.021 129.154 402.727 129.804C399.372 130.303 396.066 131.084 392.842 132.139C390.323 132.924 387.922 134.05 385.708 135.485C383.934 136.603 382.334 137.975 380.96 139.558C379.813 140.892 378.932 142.433 378.366 144.099C377.834 145.643 377.563 147.265 377.561 148.898C377.504 151.462 377.963 154.012 378.91 156.396C379.761 158.457 381.075 160.294 382.75 161.766C384.464 163.254 386.47 164.367 388.639 165.035C391.045 165.76 393.546 166.119 396.059 166.099C398.148 166.118 400.234 165.927 402.285 165.528C404.069 165.135 405.807 164.561 407.474 163.815C409.142 163.055 410.732 162.134 412.222 161.065C413.868 159.886 415.444 158.613 416.944 157.252L418.293 161.844C418.573 162.91 419.239 163.834 420.161 164.438C421.196 164.929 422.338 165.152 423.481 165.087H430.434V125.134C430.463 121.765 429.928 118.415 428.852 115.223ZM415.491 148.664C413.567 150.769 411.294 152.524 408.771 153.853C406.225 155.047 403.436 155.633 400.625 155.565C398.425 155.671 396.249 155.061 394.425 153.827C391.774 151.364 391.261 147.358 393.205 144.306C394.204 142.961 395.549 141.912 397.097 141.271C399.405 140.244 401.839 139.529 404.335 139.143C408.023 138.5 411.75 138.11 415.491 137.976V148.664ZM484.604 73.1431V106.636C482.636 104.749 480.354 103.221 477.859 102.122C474.972 100.94 471.871 100.375 468.753 100.462C464.848 100.436 460.992 101.324 457.493 103.056C454.157 104.729 451.226 107.111 448.906 110.035C446.432 113.119 444.558 116.638 443.38 120.412C442.073 124.664 441.425 129.091 441.46 133.539C441.395 138.214 441.971 142.875 443.172 147.393C444.143 151.011 445.779 154.416 447.998 157.433C451.951 162.846 458.289 166.001 464.991 165.891C469.014 166.021 473.004 165.128 476.588 163.297C479.925 161.468 482.912 159.061 485.408 156.188L486.706 162.311C487.113 164.065 488.752 165.25 490.545 165.087H499.885V73.1172L484.604 73.1431ZM484.682 146.278C482.917 148.52 480.764 150.426 478.326 151.907C475.849 153.293 473.041 153.974 470.206 153.879C468.36 153.911 466.529 153.548 464.835 152.815C463.166 152.046 461.746 150.823 460.736 149.287C459.486 147.356 458.606 145.21 458.142 142.957C457.497 139.861 457.202 136.702 457.26 133.539C457.203 130.318 457.552 127.101 458.297 123.966C458.859 121.565 459.89 119.299 461.333 117.299C462.594 115.599 464.262 114.243 466.184 113.355C468.149 112.471 470.283 112.029 472.437 112.058C474.698 112.047 476.938 112.488 479.026 113.355C481.238 114.375 483.176 115.904 484.682 117.818V146.278ZM530.524 73.1431V165.087H515.243V73.1431H530.524ZM592.425 148.639C591.39 148.666 590.38 148.961 589.493 149.495C588.56 150.065 587.314 150.714 585.965 151.415C584.457 152.187 582.886 152.829 581.269 153.334C579.189 153.944 577.029 154.233 574.861 154.19C572.553 154.228 570.258 153.841 568.09 153.049C566.123 152.304 564.35 151.124 562.901 149.598C561.318 147.901 560.099 145.897 559.321 143.709C558.33 140.991 557.745 138.141 557.583 135.252L596.861 135.226C597.958 135.368 599.046 134.912 599.715 134.032C600.339 132.559 600.597 130.957 600.467 129.363C600.536 125.196 599.833 121.053 598.392 117.143C597.14 113.763 595.186 110.686 592.659 108.115C590.196 105.634 587.221 103.722 583.942 102.511C580.398 101.196 576.643 100.545 572.864 100.591C568.467 100.567 564.113 101.45 560.074 103.186C556.453 104.741 553.193 107.028 550.5 109.905C547.841 112.789 545.786 116.177 544.456 119.867C543.037 123.784 542.325 127.921 542.354 132.087C542.258 137.096 543.076 142.08 544.767 146.797C546.215 150.76 548.468 154.382 551.382 157.433C554.178 160.286 557.559 162.499 561.293 163.919C565.226 165.421 569.406 166.169 573.616 166.124C575.916 166.123 578.214 165.958 580.491 165.632C582.877 165.295 585.223 164.721 587.496 163.919C589.81 163.106 592.021 162.027 594.085 160.702C596.225 159.345 598.142 157.665 599.767 155.721L595.279 150.065C594.658 149.106 593.565 148.559 592.425 148.639ZM562.694 115.327C565.502 112.722 569.246 111.365 573.071 111.565C575.118 111.527 577.15 111.916 579.038 112.707C580.671 113.413 582.119 114.487 583.267 115.846C584.428 117.19 585.31 118.751 585.861 120.438C586.427 122.252 586.716 124.141 586.718 126.042H557.842C558.251 122.038 559.954 118.276 562.694 115.327Z" fill="#010002"></path>
    <path d="M212.95 10.4382C199.376 -3.14676 177.472 -3.51411 163.45 9.60809C162.775 10.2292 162.39 11.1036 162.386 12.0208C162.367 12.942 162.723 13.8315 163.372 14.4854L167.86 18.9736C169.057 20.1648 170.946 20.2974 172.297 19.2849C175.816 16.6292 180.108 15.1987 184.516 15.2118C195.792 15.2116 204.934 24.3527 204.934 35.629C204.934 41.0379 202.788 46.2258 198.967 50.0539C170.766 78.4101 132.915 -0.821184 47.2754 39.9359C41.4538 42.6401 38.9265 49.5516 41.6307 55.3733C41.7701 55.6733 41.9222 55.9673 42.0867 56.2544L56.7706 81.6531C59.9588 87.1516 66.9662 89.0796 72.5183 85.9856L72.8815 85.7781L72.5962 85.9856L79.1079 82.3275C86.3718 77.8288 93.2373 72.7165 99.6293 67.0469C100.928 65.8354 102.922 65.7689 104.299 66.8912C105.732 68.0589 105.947 70.1669 104.779 71.5997C104.636 71.7757 104.475 71.9365 104.299 72.0798C97.6292 78.0867 90.4505 83.5033 82.8438 88.2686L82.6104 88.3983L76.0986 92.0304C73.3537 93.586 70.2511 94.3996 67.0962 94.3913C60.4423 94.4077 54.2835 90.8785 50.9334 85.1294L37.0277 61.1577C10.3579 79.9926 -5.83089 116.288 2.8602 162.207C3.17138 163.808 4.57599 164.962 6.20691 164.957H22.0064C23.7577 165.025 25.2685 163.739 25.4829 162C27.1386 149.298 38.7778 140.343 51.4797 141.999C61.911 143.359 70.1209 151.569 71.4806 162C71.6874 163.67 73.0931 164.931 74.7754 164.957H90.1858C91.8934 164.959 93.3369 163.693 93.5585 162C95.1574 149.305 106.745 140.31 119.439 141.909C129.939 143.232 138.208 151.5 139.53 162C139.74 163.689 141.175 164.957 142.877 164.957H158.106C159.948 164.958 161.45 163.479 161.478 161.637C161.842 140.156 167.627 115.483 184.153 103.134C241.203 60.3794 226.181 23.7213 212.95 10.4382ZM154.655 75.1153V75.0893L143.759 69.6153C143.745 65.8327 146.8 62.7548 150.583 62.7409C154.365 62.7269 157.443 65.7819 157.457 69.5645C157.465 71.7565 156.424 73.82 154.655 75.1153Z" fill="url(#paint0_linear_511_1282)"></path>
  </g>
  <defs>
    <linearGradient id="paint0_linear_511_1282" x1="44.865" y1="14.1978" x2="167.797" y2="155.403" gradientUnits="userSpaceOnUse">
      <stop stop-color="#209BC4"></stop>
      <stop offset="1" stop-color="#4DC9C0"></stop>
    </linearGradient>
    <clipPath id="clip0_511_1282">
      <rect width="600" height="166.124" fill="white" transform="translate(0.5 0.00292969)"></rect>
    </clipPath>
  </defs>
</svg>
